<svg xmlns="http://www.w3.org/2000/svg" viewBox="0 0 64 64">
  <rect width="64" height="64" rx="14" fill="#C6A455"/>
  <g fill="#0A0A0B" transform="translate(32 32) scale(0.58) translate(-32 -32)">
    <rect x="29.1" y="1.3" width="5.8" height="14" rx="1.2" transform="rotate(0 32 32)"/>
    <rect x="29.75" y="5.1" width="4.5" height="9" rx="1.2" transform="rotate(30 32 32)"/>
    <rect x="29.1" y="1.3" width="5.8" height="14" rx="1.2" transform="rotate(60 32 32)"/>
    <rect x="29.75" y="5.1" width="4.5" height="9" rx="1.2" transform="rotate(90 32 32)"/>
    <rect x="29.1" y="1.3" width="5.8" height="14" rx="1.2" transform="rotate(120 32 32)"/>
    <rect x="29.75" y="5.1" width="4.5" height="9" rx="1.2" transform="rotate(150 32 32)"/>
    <rect x="29.1" y="1.3" width="5.8" height="14" rx="1.2" transform="rotate(180 32 32)"/>
    <rect x="29.75" y="5.1" width="4.5" height="9" rx="1.2" transform="rotate(210 32 32)"/>
    <rect x="29.1" y="1.3" width="5.8" height="14" rx="1.2" transform="rotate(240 32 32)"/>
    <rect x="29.75" y="5.1" width="4.5" height="9" rx="1.2" transform="rotate(270 32 32)"/>
    <rect x="29.1" y="1.3" width="5.8" height="14" rx="1.2" transform="rotate(300 32 32)"/>
    <rect x="29.75" y="5.1" width="4.5" height="9" rx="1.2" transform="rotate(330 32 32)"/>
    <circle cx="32" cy="32" r="10.2"/>
  </g>
</svg>
